<?xml version="1.0" encoding="utf-8"?><svg xmlns="http://www.w3.org/2000/svg" xmlns:xlink="http://www.w3.org/1999/xlink"><symbol viewBox="0 0 512 512" id="access" xmlns="http://www.w3.org/2000/svg"><path class="ast0" fill="#4FC188" d="M488 56v256H24V56c0-17.7 14.3-32 32-32h400c17.7 0 32 14.3 32 32z"/><path class="ast1" fill="#FF7956" d="M488 440v32c0 8.8-7.2 16-16 16h-96c-8.8 0-16-7.2-16-16v-32h128z"/><path class="ast2" fill="#3C589E" d="M488 312v128H360V312h128z"/><path class="ast1" fill="#FF7956" d="M488 280v32H360v-32c0-8.8 7.2-16 16-16h96c8.8 0 16 7.2 16 16z"/><path class="ast3" fill="#C0AB91" d="M360 312v64H248v-64h112zM312 456c8.8 0 16 7.2 16 16-.1 8.8-7.2 15.9-16 16h-80c8.8 0 16-7.2 16-16v-16h64z"/><path class="ast4" fill="#A78966" d="M280 376l16 80h-48v-80h32z"/><circle class="ast3" fill="#C0AB91" cx="256" cy="168" r="16"/><path class="ast5" fill="#2EA8CE" d="M248 456v16c0 8.8-7.2 16-16 16H72c-8.8 0-16-7.2-16-16V232c0-8.8 7.2-16 16-16h160c8.8 0 16 7.2 16 16v224z"/><path class="ast3" fill="#C0AB91" d="M56 312v64c-17.7 0-32-14.3-32-32v-32h32z"/><path d="M456 16H56c-22.1 0-40 17.9-40 40v288c0 19 13.4 35.4 32 39.2V472c0 13.3 10.7 24 24 24h240c13.3 0 24-10.7 24-24s-10.7-24-24-24h-9.4l-12.8-64H352v88c0 13.3 10.7 24 24 24h96c13.3 0 24-10.7 24-24V56c0-22.1-17.9-40-40-40zM56 32h400c13.3 0 24 10.7 24 24v201.5c-2.6-.9-5.3-1.4-8-1.5h-96c-13.3 0-24 10.7-24 24v24h-96v-72c0-13.3-10.7-24-24-24H72c-13.3 0-24 10.7-24 24v72H32V56c0-13.3 10.7-24 24-24zM32 344v-24h16v46.5c-9.6-3.4-16-12.4-16-22.5zm40 136c-4.4 0-8-3.6-8-8V232c0-4.4 3.6-8 8-8h160c4.4 0 8 3.6 8 8v240c0 4.4-3.6 8-8 8H72zm248-8c0 4.4-3.6 8-8 8h-57.5c.9-2.6 1.4-5.3 1.5-8v-8h56c4.4 0 8 3.6 8 8zm-33.8-24H256v-64h17.4l12.8 64zM256 368v-48h96v48h-96zm112-48h112v112H368V320zm104 160h-96c-4.4 0-8-3.6-8-8v-24h112v24c0 4.4-3.6 8-8 8zm8-176H368v-24c0-4.4 3.6-8 8-8h96c4.4 0 8 3.6 8 8v24z"/><path d="M392 48h16v16h-16V48zM448 88h16V56c0-4.4-3.6-8-8-8h-32v16h24v24zM256 64c27.6 0 54.1 10.9 73.6 30.5l11.3-11.3C294 36.3 218 36.3 171.2 83.1l11.3 11.3C201.9 74.9 228.4 64 256 64z"/><path d="M193.8 105.8l11.3 11.3c28.1-28.1 73.7-28.1 101.8 0l11.3-11.3c-34.3-34.4-90-34.4-124.4 0z"/><path d="M216.4 128.4l11.4 11.3c15.6-15.6 40.8-15.6 56.4 0l11.4-11.3c-21.8-21.9-57.2-21.9-79-.2-.1.1-.1.2-.2.2zM256 144c-13.3 0-24 10.7-24 24s10.7 24 24 24 24-10.7 24-24-10.7-24-24-24zm0 32c-4.4 0-8-3.6-8-8s3.6-8 8-8 8 3.6 8 8-3.6 8-8 8zM152 240h16v16h-16v-16zM216 240h-32v16h24v24h16v-32c0-4.4-3.6-8-8-8z"/></symbol><symbol id="logo" viewBox="0 0 1032.1 125" xml:space="preserve" xmlns="http://www.w3.org/2000/svg"><style>.st0{clip-path:url(#bSVGID_2_)}.bst1{clip-path:url(#bSVGID_4_)}</style><g id="blogo"><defs><circle id="bSVGID_1_" cx="110.5" cy="85" r="200"/></defs><clipPath id="bSVGID_2_"><use xlink:href="#bSVGID_1_" overflow="visible"/></clipPath><path d="M3.9 112.2L0 116h34.5c93-93.4 226.9-110 261-112.8v-.1C109.4 13.8 23.4 93.4 3.9 112.2" id="bx1"/><g><defs><circle id="bSVGID_3_" cx="65.5" cy="90" r="80"/></defs><clipPath id="bSVGID_4_"><use xlink:href="#bSVGID_3_" overflow="visible"/></clipPath><g id="bx2" class="bst1"><path d="M98.7 116h34.1L85.6 81.2c-5.7 3.9-11.6 8.3-17.2 12.7L98.7 116zM36.4 44.6H2.3l40 29.3C48.1 70 54.8 65.8 61 62.2L36.4 44.6z"/></g></g></g><path d="M153.6 98.8l4.2-9.3c4.5 3.3 11.2 5.5 17.6 5.5 7.3 0 10.3-2.4 10.3-5.7 0-10-30.9-3.1-30.9-22.9 0-9 7.3-16.6 22.4-16.6 6.7 0 13.5 1.6 18.5 4.7l-3.8 9.3c-4.9-2.8-10-4.2-14.7-4.2-7.3 0-10.1 2.7-10.1 6.1 0 9.8 30.9 3 30.9 22.6 0 8.9-7.4 16.5-22.6 16.5-8.5.1-17.1-2.4-21.8-6zM220.4 60.8h-17v-10h46.4v10h-17V104h-12.3V60.8zM292.5 92.6h-24.7l-4.7 11.4h-12.6l23.7-53.2h12.2l23.8 53.2h-12.9l-4.8-11.4zm-3.9-9.3l-8.4-20.4-8.4 20.4h16.8zM353.4 104l-10.3-14.8H331.8V104h-12.3V50.8h23c14.2 0 23.1 7.4 23.1 19.3 0 8-4 13.8-10.9 16.8l11.9 17.1h-13.2zm-11.6-43.2h-10v18.5h10c7.5 0 11.3-3.5 11.3-9.3 0-5.7-3.8-9.2-11.3-9.2zM379.1 50.8h12.3V94h26.7v10h-39V50.8zM428.8 50.8h12.3V104h-12.3V50.8zM506.3 50.8V104h-10.1l-26.5-32.3V104h-12.2V50.8h10.2l26.4 32.3V50.8h12.2zM542.1 83.1l-7.1 7.4V104h-12.2V50.8H535v24.9l23.6-24.9h13.7l-22 23.7 23.3 29.5h-14.4l-17.1-20.9zM619.2 55.7h-18.7v-4.9h43v4.9h-18.7V104h-5.6V55.7zM693.9 99.1v4.9h-37.6V50.8h36.5v4.9h-30.9v18.9h27.5v4.8h-27.5v19.8h32zM747.3 104l-12.2-17.1c-1.4.2-2.7.2-4.3.2h-14.3V104h-5.6V50.8h19.9c13.5 0 21.7 6.8 21.7 18.2 0 8.4-4.4 14.2-12.2 16.7l13 18.2h-6zm-.3-35c0-8.5-5.6-13.4-16.3-13.4h-14.1v26.7h14.1c10.6 0 16.3-4.9 16.3-13.3zM824.9 50.8V104h-5.4V61.4l-20.9 35.8H796l-20.9-35.6V104h-5.4V50.8h4.6l23.1 39.4 22.9-39.4h4.6zM846.1 50.8h5.6V104h-5.6V50.8zM917.3 50.8V104h-4.6l-34.2-43.2V104h-5.6V50.8h4.6L911.7 94V50.8h5.6zM971.8 89.8h-29.6l-6.4 14.2h-5.9l24.3-53.2h5.5L984 104h-5.9l-6.3-14.2zm-2.1-4.6l-12.8-28.6-12.8 28.6h25.6zM996.7 50.8h5.6v48.3h29.8v4.9h-35.4V50.8z"/></symbol><symbol viewBox="0 0 511.999 511.999" id="satellite" xmlns="http://www.w3.org/2000/svg"><path d="M284.476 227.524c34.598 34.598 90.694 34.598 125.293 0L284.476 102.231c-34.599 34.599-34.599 90.694 0 125.293z" fill="#edbc53"/><path d="M298.615 212.714c-29.614-29.614-33.856-74.967-12.775-109.118l-1.365-1.364c-34.598 34.598-34.598 90.693 0 125.293s90.694 34.598 125.293 0l-2.035-2.035c-34.152 21.081-79.504 16.838-109.118-12.776z" fill="#f09c48"/><path fill="#c8c6d4" d="M261.695 295.86l-45.56-45.56 34.17-34.17 45.56 45.56z"/><path fill="#6c66bc" d="M233.21 301.56l-22.78-22.78 17.084-17.086 22.78 22.78z"/><path fill="#f09c48" d="M364.207 181.963l22.78-56.951-56.95 22.78z"/><g fill="#79d1d1"><path d="M300.719 355.09l136.68 136.68-12.683 12.682-136.68-136.68zM504.442 424.717l-67.045 67.044-136.68-136.68 67.045-67.044zM87.283 7.556l136.68 136.68-79.73 79.73L7.552 87.285z"/></g><g fill="#73bfbf"><path d="M300.719 355.09l136.68 136.68-12.683 12.682-136.68-136.68zM156.914 211.286l-12.683 12.682L7.551 87.288l12.683-12.682z"/></g><path d="M347.121 261.024c25.682 0 49.826-10.001 67.985-28.16a7.55 7.55 0 000-10.678l-10.514-10.514a7.55 7.55 0 10-10.678 10.677l4.93 4.931c-14.511 12.071-32.613 18.642-51.723 18.642-21.647 0-42-8.43-57.307-23.737-29.8-29.8-31.499-77.221-5.092-109.028l83.507 83.508a7.552 7.552 0 0010.678-10.679l-5.841-5.841 20.931-52.328c2.413-6.032-3.778-12.236-9.815-9.815l-52.326 20.932-42.04-42.04c-2.906-2.907-7.771-2.907-10.678 0-37.488 37.488-37.488 98.483 0 135.972 18.158 18.157 42.302 28.158 67.983 28.158zm-3.648-110.474l29.96-11.983-11.984 29.961-4.413-4.413-13.563-13.565zM397.686 33.268c21.647 0 42 8.431 57.307 23.738 15.307 15.306 23.737 35.658 23.737 57.306a7.55 7.55 0 1015.102 0c0-25.683-10.002-49.826-28.161-67.984-18.16-18.161-42.304-28.162-67.986-28.162a7.55 7.55 0 10.001 15.102z"/><path d="M397.686 65.484c13.043 0 25.304 5.079 34.527 14.302 9.222 9.222 14.301 21.483 14.301 34.526a7.55 7.55 0 1015.102 0c0-17.076-6.65-33.13-18.725-45.205-12.075-12.074-28.129-18.725-45.205-18.725a7.55 7.55 0 100 15.102zM397.685 97.701a16.51 16.51 0 0111.747 4.867 16.5 16.5 0 014.866 11.745 7.55 7.55 0 1015.102 0c0-8.471-3.299-16.434-9.288-22.424-5.989-5.988-13.953-9.288-22.424-9.289a7.55 7.55 0 00-.003 15.101zM509.788 419.378L373.105 282.694c-2.906-2.906-7.771-2.906-10.678 0L327.9 317.221l-38.441-38.441 11.746-11.746c2.908-2.909 2.908-7.771 0-10.679l-45.561-45.561a7.552 7.552 0 00-10.678 0l-11.747 11.746-38.441-38.442 34.526-34.526a7.551 7.551 0 000-10.679L92.621 2.21c-2.907-2.907-7.771-2.907-10.678 0L2.212 81.943a7.551 7.551 0 000 10.679l136.683 136.683c2.907 2.907 7.771 2.907 10.678 0l34.527-34.527 38.441 38.441-11.746 11.746c-2.908 2.909-2.908 7.771 0 10.679l6.051 6.051-11.746 11.746c-2.908 2.909-2.908 7.771 0 10.679l22.78 22.781c2.907 2.907 7.771 2.907 10.678 0l11.746-11.746 6.051 6.051c2.91 2.909 7.769 2.909 10.678 0l11.747-11.746 38.441 38.442-34.526 34.526a7.551 7.551 0 000 10.679L419.378 509.79c2.906 2.907 7.771 2.907 10.678 0l79.732-79.732a7.552 7.552 0 000-10.68zM184.099 173.42l-34.882-34.882 29.187-29.187 34.882 34.882-29.187 29.187zm-85.409-5.677l-34.919-34.919c.126-.11.254-.217.374-.337l28.832-28.832 34.882 34.882-28.832 28.831c-.119.122-.227.249-.337.375zm4.966-74.766l29.187-29.187 34.882 34.882-29.187 29.187-34.882-34.882zM87.282 18.229l34.882 34.882-29.187 29.187-34.882-34.882 29.187-29.187zM47.416 58.095l34.882 34.882-28.831 28.831c-.121.121-.228.249-.338.375l-34.9-34.9 29.187-29.188zm96.818 155.192l-34.9-34.901c.126-.11.254-.217.374-.337l28.832-28.832 34.882 34.882-29.188 29.188zm88.985 77.595l-12.102-12.102 6.407-6.406 12.102 12.102-6.407 6.406zm28.476-5.695l-34.882-34.882 23.493-23.492 34.882 34.882-23.493 23.492zm117.479 163.04l-34.919-34.919c.126-.11.254-.217.374-.337l28.832-28.832 34.882 34.882-28.831 28.831c-.12.121-.228.248-.338.375zm4.966-74.766l29.188-29.187 34.882 34.882-29.188 29.187-34.882-34.882zm-16.374-74.749l34.882 34.882-29.188 29.187-34.882-34.882 29.188-29.187zM327.9 338.579l34.882 34.882-28.831 28.831c-.121.121-.228.249-.338.375l-34.9-34.9 29.187-29.188zm96.817 155.191l-34.9-34.901c.126-.11.254-.217.374-.337l28.832-28.832 34.882 34.882-29.188 29.188zm39.866-39.866l-34.882-34.882 29.188-29.188 34.882 34.882-29.188 29.188z"/></symbol><symbol viewBox="0 0 512 512" id="terminal" xmlns="http://www.w3.org/2000/svg"><g transform="translate(1 1)"><path d="M310.467 442.733v34.133c0 6.656-12.544 12.629-33.195 17.237h-.085a470.671 470.671 0 01-94.72 8.363c-70.656 0-128-11.435-128-25.6v-34.133h256z" fill="#f57c00"/><path d="M284.867 451.267V485.4c0 3.072-2.646 5.973-7.595 8.704h-.085a470.671 470.671 0 01-94.72 8.363c-70.656 0-128-11.435-128-25.6v-25.6h230.4z" fill="#ff9801"/><path d="M199.533 417.389c62.635 1.621 110.933 12.373 110.933 25.344 0 14.165-57.344 25.6-128 25.6s-128-11.435-128-25.6c0-12.971 48.299-23.723 110.933-25.344h34.134z" fill="#d84315"/><path d="M180.191 417.389c54.283 1.621 96.142 12.373 96.142 25.344 0 14.165-49.698 25.6-110.933 25.6s-110.933-11.435-110.933-25.6c0-12.971 41.859-23.723 96.142-25.344h29.582z" fill="#ff5722"/><path d="M199.533 345.624v80.043c0 9.426-7.641 17.067-17.067 17.067s-17.067-7.641-17.067-17.067V321.304l34.134 24.32z" fill="#cfd8dc"/><g fill="#607d8b"><path d="M100.632 48.664c-.939.939-1.877 1.963-2.731 2.901a8.433 8.433 0 00-.853.939C39.789 117.528 59.843 234.776 144.067 319s201.472 104.277 266.496 47.019c.334-.261.647-.546.939-.853a83.59 83.59 0 002.901-2.731L100.632 48.664z"/><path d="M424.813 325.997v10.155a41.027 41.027 0 01-11.093 27.051 27.77 27.77 0 01-3.413 2.901c-.853.683-1.707 1.28-2.559 1.877-36.949 23.125-124.843-17.237-205.141-95.317-2.048-2.048-4.096-4.011-6.144-6.059-1.964-1.963-3.926-3.925-5.889-5.973-72.96-74.923-113.067-156.587-99.242-197.205a37 37 0 013.754-8.107 35.756 35.756 0 014.779-5.973 41.023 41.023 0 0127.05-11.093h10.154a164.515 164.515 0 0157.259 17.067 460.887 460.887 0 01116.737 84.651c2.048 1.963 4.011 3.925 6.059 5.973s4.096 4.096 6.059 6.144a458.573 458.573 0 0184.565 116.651 164.51 164.51 0 0117.065 57.257z"/></g><path d="M412.867 343.064v10.155a47.327 47.327 0 01-2.56 12.885c-.853.683-1.707 1.28-2.559 1.877-36.949 23.125-124.843-17.237-205.141-95.317-2.048-2.048-4.096-4.011-6.144-6.059-1.964-1.963-3.926-3.925-5.889-5.973-72.96-74.923-113.067-156.587-99.242-197.205a43.308 43.308 0 0123.637-8.107h10.154a164.536 164.536 0 0157.259 17.067 460.835 460.835 0 01116.735 84.651c2.048 1.963 4.011 3.925 6.059 5.973s4.096 4.096 6.059 6.144a458.545 458.545 0 0184.564 116.651 164.526 164.526 0 0117.068 57.258z" fill="#cfd8dc"/><circle cx="421.4" cy="41.667" r="34.133" fill="#7f8c8d"/></g><path d="M422.4 0c-20.265.028-37.724 14.283-41.804 34.133H158.375c-.065 0-.117.035-.18.036-26.393-6.157-48.061-3.581-61.862 8.973a8.145 8.145 0 00-.732.486l-.354.368c-.131.128-.3.207-.429.336-.174.174-.282.4-.452.576a83.584 83.584 0 00-1.54 1.666c-.428.399-.823.831-1.183 1.292-60.592 68.812-39.775 191 47.392 278.166 6.11 6.11 12.41 11.85 18.833 17.303v66.801c-34.351 1.386-110.933 7.428-110.933 33.596v34.133c0 33.175 122.558 34.133 136.533 34.133S320 511.042 320 477.867v-34.133c0-26.168-76.582-32.209-110.933-33.596v-31.759a234.74 234.74 0 00109.867 29.78 145.345 145.345 0 0097.808-34.354 13.926 13.926 0 001.492-1.317c.546-.494 1.108-1.05 1.675-1.582.256-.242.575-.401.825-.651.15-.15.242-.343.39-.495.109-.109.227-.209.335-.318.198-.201.271-.464.446-.678 12.576-13.806 15.157-35.492 8.995-61.905.001-.06.034-.11.034-.171V84.471c21.46-4.382 36.117-24.301 33.915-46.092C462.647 16.587 444.303.001 422.4 0zm-41.804 51.2a42.383 42.383 0 006.246 14.958l-68.848 68.848A466.885 466.885 0 00203.925 51.2h176.671zm28.397 306.553c-.33.323-.661.626-1 .94-26.351 24.589-110.946-6.198-198.376-91.177l108.381-108.38c85.216 87.671 115.946 172.528 90.995 198.617zm-103.037-210.71L197.55 255.45C112.55 168 81.783 83.373 106.392 57.055c.315-.338.617-.67.94-1.001a36.33 36.33 0 0125.827-8.441c38.533 0 104.836 33.367 172.797 99.43zM64 476.94v-14.895c34.171 15.24 108.746 15.822 119.467 15.822 10.721 0 85.296-.582 119.467-15.822v14.895c-5.411 6.312-45.76 17.994-119.467 17.994S69.411 483.251 64 476.94zm119.467-16.14c-70.183 0-110.133-10.596-118.467-17.054 7.139-5.474 37.854-14.313 92.923-16.525.276 13.91 11.631 25.042 25.544 25.042s25.268-11.132 25.544-25.042c55.069 2.213 85.784 11.051 92.923 16.525-8.334 6.458-48.284 17.054-118.467 17.054zM192 426.667a8.533 8.533 0 01-17.066 0V356.78c5.62 4.121 11.301 8.061 17.067 11.699v58.188zm-40.9-112.7C84.623 247.489 59.077 160.015 82.49 96.498c6.924 47.929 46.457 114.72 108.909 177.169 62.508 62.513 129.331 102 177.273 108.868-63.52 23.471-151.06-2.056-217.572-68.568zm178.961-166.895l68.848-68.847a42.401 42.401 0 0014.958 6.246v176.657a466.887 466.887 0 00-83.806-114.056zM422.4 68.267c-14.138 0-25.6-11.462-25.6-25.6s11.462-25.6 25.6-25.6 25.6 11.462 25.6 25.6c-.015 14.132-11.468 25.584-25.6 25.6z"/></symbol></svg>